<svg width="16" height="16" viewBox="0 0 16 16" fill="none" xmlns="http://www.w3.org/2000/svg">
<path d="M14.4919 10.7533C14.4953 10.8991 14.4508 11.0419 14.3652 11.16C14.2808 11.2803 14.1589 11.3694 14.0186 11.4133L12.8786 11.7933C12.5274 11.9099 12.208 12.1062 11.9452 12.3667C11.6828 12.6279 11.4863 12.9478 11.3719 13.3L10.9719 14.4333C10.9302 14.5694 10.8461 14.6885 10.7319 14.7733C10.61 14.8561 10.466 14.9003 10.3186 14.9C10.1707 14.9063 10.0249 14.8632 9.90417 14.7775C9.78346 14.6918 9.69471 14.5684 9.65191 14.4267L9.27191 13.2867C9.15757 12.9345 8.96104 12.6145 8.69858 12.3533C8.43365 12.094 8.11505 11.896 7.76525 11.7733L6.62525 11.4C6.49029 11.3527 6.3721 11.2669 6.28525 11.1533C6.19772 11.0329 6.14889 10.8888 6.14525 10.74C6.13893 10.5921 6.18201 10.4463 6.26772 10.3256C6.35342 10.2049 6.47686 10.1161 6.61858 10.0733L7.76525 9.69332C8.12086 9.57841 8.4441 9.38068 8.70835 9.11643C8.97261 8.85217 9.17033 8.52893 9.28525 8.17332L9.66525 7.04665C9.70411 6.90802 9.7868 6.7857 9.90096 6.69797C10.0151 6.61025 10.1546 6.56184 10.2986 6.55999C10.4419 6.55999 10.5826 6.59932 10.7052 6.67332C10.8266 6.75665 10.9199 6.87532 10.9719 7.01332L11.3586 8.17332C11.4735 8.52893 11.6712 8.85217 11.9355 9.11643C12.1997 9.38068 12.523 9.57841 12.8786 9.69332L14.0119 10.0933C14.1498 10.1385 14.2692 10.2275 14.3519 10.3467C14.4422 10.463 14.4915 10.606 14.4919 10.7533ZM7.82591 6.51332C7.82489 6.64401 7.78548 6.77151 7.71258 6.87999C7.63378 6.98731 7.52465 7.06858 7.39925 7.11332L6.55925 7.39332C6.32391 7.47465 6.11058 7.60665 5.93258 7.77999C5.75858 7.95743 5.62647 8.17155 5.54591 8.40665L5.25925 9.23332C5.2186 9.36087 5.13647 9.47116 5.02591 9.54665C4.91631 9.62318 4.78624 9.66498 4.65258 9.66665C4.51592 9.66438 4.38327 9.62016 4.27258 9.53999C4.16773 9.46023 4.08885 9.3512 4.04591 9.22665L3.77258 8.39332C3.69238 8.16 3.56015 7.94799 3.38591 7.77332C3.21518 7.59419 3.00189 7.46117 2.76591 7.38665L1.93258 7.10665C1.80327 7.06595 1.69087 6.98399 1.61258 6.87332C1.55951 6.79021 1.52555 6.69636 1.51312 6.59854C1.5007 6.50071 1.51013 6.40135 1.54074 6.30762C1.57135 6.21388 1.62237 6.1281 1.69013 6.05646C1.75789 5.98482 1.84069 5.9291 1.93258 5.89332L2.76591 5.61999C3.00171 5.53765 3.21589 5.40318 3.3925 5.22657C3.5691 5.04996 3.70358 4.83578 3.78591 4.59999L4.05925 3.77999C4.09854 3.6571 4.17265 3.54825 4.27258 3.46665C4.37877 3.38664 4.50646 3.3402 4.63925 3.33332C4.77378 3.3297 4.90625 3.36689 5.01925 3.43999C5.13046 3.51506 5.21643 3.62194 5.26591 3.74665L5.54591 4.59999C5.62825 4.83578 5.76272 5.04996 5.93933 5.22657C6.11594 5.40318 6.33012 5.53765 6.56591 5.61999L7.39925 5.90665C7.52388 5.94946 7.63141 6.03128 7.70591 6.13999C7.78482 6.24839 7.82688 6.37924 7.82591 6.51332ZM11.6852 2.93999C11.6792 3.06154 11.64 3.17912 11.5719 3.27999C11.5025 3.37505 11.4043 3.4452 11.2919 3.47999L10.8786 3.61999C10.7983 3.6477 10.7254 3.69331 10.6653 3.75337C10.6052 3.81343 10.5596 3.88636 10.5319 3.96665L10.3852 4.38665C10.345 4.48892 10.2783 4.57865 10.1919 4.64665C10.0936 4.72539 9.97117 4.76778 9.84525 4.76665C9.73 4.7595 9.61808 4.72524 9.51858 4.66665C9.41891 4.59322 9.34439 4.49076 9.30525 4.37332L9.16525 3.95999C9.14117 3.87801 9.09505 3.80422 9.03191 3.74665C8.97314 3.68498 8.89977 3.63912 8.81858 3.61332L8.40525 3.47999C8.29526 3.4371 8.19864 3.36578 8.12525 3.27332C8.05608 3.1734 8.01888 3.05484 8.01858 2.93332C8.02245 2.81137 8.06184 2.6932 8.13191 2.59332C8.20372 2.50075 8.30106 2.43122 8.41191 2.39332L8.81858 2.25999C8.90069 2.23197 8.97575 2.18648 9.03858 2.12665C9.09841 2.06382 9.1439 1.98876 9.17191 1.90665L9.31191 1.49332C9.35191 1.38999 9.41525 1.29865 9.49858 1.22665C9.59423 1.15606 9.70701 1.11233 9.82525 1.09999C9.95106 1.09927 10.0742 1.13643 10.1786 1.20665C10.2726 1.27735 10.3462 1.37165 10.3919 1.47999L10.5319 1.90665C10.5599 1.98876 10.6054 2.06382 10.6652 2.12665C10.7273 2.18423 10.7997 2.22948 10.8786 2.25999L11.2986 2.39999C11.4054 2.44201 11.4995 2.5109 11.5719 2.59999C11.6446 2.69851 11.6843 2.81753 11.6852 2.93999Z" fill="white"/>
</svg>
